<svg width="29" height="27" viewBox="0 0 29 27" fill="none" xmlns="http://www.w3.org/2000/svg">
<path d="M14.3334 0.0939645L19.2194 7.86836L19.2303 7.88574L19.2503 7.89043L28.3308 10.0247L22.27 16.9618L22.2562 16.9777L22.2578 16.9987L22.985 26.0906L14.3521 22.6051L14.3334 22.5976L14.3147 22.6051L5.68173 26.0906L6.4089 16.9987L6.41058 16.9777L6.39672 16.9618L0.335957 10.0247L9.41642 7.89043L9.43639 7.88574L9.44731 7.86836L14.3334 0.0939645Z" fill="#FFC833"/>
<path d="M14.3334 0.0939645L19.2194 7.86836L19.2303 7.88574L19.2503 7.89043L28.3308 10.0247L22.27 16.9618L22.2562 16.9777L22.2578 16.9987L22.985 26.0906L14.3521 22.6051L14.3334 22.5976L14.3147 22.6051L5.68173 26.0906L6.4089 16.9987L6.41058 16.9777L6.39672 16.9618L0.335957 10.0247L9.41642 7.89043L9.43639 7.88574L9.44731 7.86836L14.3334 0.0939645Z" fill="url(#paint0_linear)"/>
<path d="M14.3334 0.0939645L19.2194 7.86836L19.2303 7.88574L19.2503 7.89043L28.3308 10.0247L22.27 16.9618L22.2562 16.9777L22.2578 16.9987L22.985 26.0906L14.3521 22.6051L14.3334 22.5976L14.3147 22.6051L5.68173 26.0906L6.4089 16.9987L6.41058 16.9777L6.39672 16.9618L0.335957 10.0247L9.41642 7.89043L9.43639 7.88574L9.44731 7.86836L14.3334 0.0939645Z" stroke="#15274D" stroke-width="0.1"/>
<defs>
<linearGradient id="paint0_linear" x1="40.2593" y1="14.4649" x2="-0.481445" y2="14.4649" gradientUnits="userSpaceOnUse">
<stop offset="0.676983" stop-color="white"/>
<stop offset="0.677083" stop-color="white" stop-opacity="0"/>
</linearGradient>
</defs>
</svg>
