<svg id="effect" height="512" viewBox="0 0 36 36" width="512" xmlns="http://www.w3.org/2000/svg"><path d="m8.114 5.564c-1.805 6.677-6.504 10.327-7.374 13.545s-.847 10.475 13.955 14.477 19.432-4.501 20.388-8.041c4.481-16.572-23.772-31.807-26.969-19.981z" fill="#efefef"/><path d="m27.5 27.5h-21l.54-2.17c.23-.91.9-1.63 1.78-1.92l4.02-1.34c.56-.23.88-.73 1.07-1.27.07-.2.12-.4.16-.59.02-.09.04-.18.05-.26.07-.47.07-.88.07-1.05-.65-.54-1.45-1.47-1.45-2.26s-.45-.91-.45-.91-.45-1.13-.45-1.81c0 0 0-.01.01-.02.03-.09.18-.43.48-.43 0 0 0-.35 0-.86 0-.01 0-.01 0-.02.02-.48.05-1.09.05-1.84 0-.6.28-1.33.76-2.01.18-.11.33-.15.33-.25 0-.07.02-.15.05-.24.84-.97 2.08-1.75 3.48-1.75s2.64.78 3.48 1.75c.03.09.05.17.05.24 0 .1.15.14.33.25.48.68.76 1.41.76 2.01 0 .75.03 1.36.05 1.84v.02.86c.3 0 .45.34.48.43.01.01.01.02.01.02 0 .68-.45 1.81-.45 1.81s-.45.12-.45.91-.8 1.72-1.45 2.26c0 .16 0 .57.07 1.05.01.08.03.17.05.26.04.2.09.39.16.59.19.54.51 1.04 1.07 1.27l4.02 1.34c.88.29 1.55 1.01 1.78 1.92z" fill="#f3f3f1"/><path d="m24 29.5s5.5-2.321 5.5-6.964c0-1.857 0-4.179 0-4.179l-5.5-1.857-5.5 1.857v4.179c0 4.643 5.5 6.964 5.5 6.964z" fill="#2fdf84"/><path d="m16.19 18.9c0 .17 0 .58-.07 1.05-.01.08-.03.17-.05.26-.04.19-.09.39-.16.59-.19.54-.51 1.04-1.07 1.27l-4.02 1.34c-.88.29-1.55 1.01-1.78 1.92l-.54 2.17h-2l.54-2.17c.23-.91.9-1.63 1.78-1.92l4.02-1.34c.56-.23.88-.73 1.07-1.27.07-.2.12-.4.16-.59.02-.09.04-.18.05-.26.07-.47.07-.88.07-1.05-.65-.54-1.45-1.47-1.45-2.26s-.45-.91-.45-.91-.45-1.13-.45-1.81c0 0 0-.01.01-.02.03-.09.18-.43.48-.43 0 0 0-.35 0-.86 0-.01 0-.01 0-.02.02-.48.05-1.09.05-1.84 0-.6.28-1.33.76-2.01.18-.11.33-.15.33-.25 0-.07.02-.15.05-.24.84-.97 2.08-1.75 3.48-1.75.34 0 .68.05 1 .14-.98.25-1.85.88-2.48 1.61-.03.09-.05.17-.05.24 0 .1-.15.14-.33.25-.48.68-.76 1.41-.76 2.01 0 .75-.03 1.36-.05 1.84v.02.86c-.3 0-.45.34-.48.43-.01.01-.01.02-.01.02 0 .68.45 1.81.45 1.81s.45.12.45.91.8 1.72 1.45 2.26z" fill="#d5dbe1"/><path d="m25 28.98c-.59.35-1 .52-1 .52s-5.5-2.32-5.5-6.96c0-2.79 0-4.18 0-4.18l5.5-1.86 1 .34-4.5 1.52v4.18c0 3.38 2.92 5.53 4.5 6.44z" fill="#00b871"/><path d="m17.02 28.25h-10.52c-.23 0-.449-.106-.591-.288-.143-.182-.192-.419-.137-.643l.54-2.17c.293-1.163 1.143-2.079 2.273-2.451l4.017-1.339c.463-.194.779-.984.831-2.127-.54-.504-1.443-1.51-1.443-2.591 0-.124-.018-.2-.031-.237-.165-.081-.296-.221-.365-.395-.052-.129-.504-1.287-.504-2.088 0-.06.007-.12.021-.179.067-.274.219-.549.443-.745.005-.089.01-.185.015-.287.026-.491.061-1.145.061-1.959 0-1.967 2.306-5 5.37-5 2.584 0 3.9 1.357 4.208 2.323.621.366 1.212 1.017 1.212 2.677v2.255c.214.182.369.43.451.677.026.077.039.157.039.238l-.815.022-.646.216c.005 0 .097.063.221.063-.414 0-.75-.336-.75-.75v-2.72c0-1.151-.319-1.312-.531-1.418-.166-.085-.609-.308-.609-.844-.038-.161-.725-1.24-2.78-1.24-2.197 0-3.87 2.333-3.87 3.5 0 .847-.035 1.527-.063 2.038-.015.284-.027.512-.027.682 0 .3-.176.559-.431.679.049.325.179.755.293 1.078.302.244.588.688.588 1.413 0 .401.507 1.125 1.18 1.683.171.143.271.354.271.577 0 2.006-.644 3.378-1.813 3.863l-4.069 1.359c-.643.212-1.124.732-1.29 1.392l-.309 1.236h9.56zm-4.925-11.796h.002c-.001.001-.002 0-.002 0zm-.002 0s0 0 0 0z"/><path d="m24 30.25c-.1 0-.198-.02-.292-.059-.243-.103-5.958-2.573-5.958-7.655v-4.179c0-.322.205-.607.51-.71l5.5-1.857c.156-.053.324-.053.48 0l5.5 1.857c.305.103.51.389.51.71v4.179c0 5.082-5.715 7.553-5.958 7.655-.094.039-.192.059-.292.059zm-4.75-11.354v3.64c0 3.516 3.673 5.601 4.749 6.136 1.075-.538 4.751-2.633 4.751-6.136v-3.64l-4.75-1.604z"/><path d="m23.5 25.25c-.014 0-.027 0-.041-.001-.214-.012-.411-.114-.545-.28l-2-2.5 1.172-.938 1.477 1.846 2.907-2.907 1.061 1.061-3.5 3.5c-.141.14-.333.219-.531.219z"/><g fill="#a4afc1"><path d="m22.957 3.474h1v2h-1z" transform="matrix(.707 -.707 .707 .707 3.707 17.897)"/><path d="m27.023 7.539h1v2h-1z" transform="matrix(.707 -.707 .707 .707 2.027 21.972)"/><path d="m26.523 3.797h2v1h-2z" transform="matrix(.707 -.707 .707 .707 5.023 20.72)"/></g></svg>