<svg width="22" height="22" viewBox="0 0 22 22" fill="none" xmlns="http://www.w3.org/2000/svg">
<path d="M19.3333 19.3324H0.666626L1.14663 17.4036C1.35107 16.5947 1.94663 15.9547 2.72885 15.6969L6.30218 14.5058C6.79996 14.3013 7.0844 13.8569 7.25329 13.3769C7.31552 13.1991 7.35996 13.0213 7.39552 12.8524C7.41329 12.7724 7.43107 12.6924 7.43996 12.6213C7.50218 12.2036 7.50218 11.8391 7.50218 11.688C6.9244 11.208 6.21329 10.3813 6.21329 9.67911C6.21329 8.97688 5.81329 8.87022 5.81329 8.87022C5.81329 8.87022 5.41329 7.86577 5.41329 7.26133C5.41329 7.26133 5.41329 7.25244 5.42218 7.24355C5.44885 7.16355 5.58218 6.86133 5.84885 6.86133C5.84885 6.86133 5.84885 6.55022 5.84885 6.09688C5.84885 6.08799 5.84885 6.08799 5.84885 6.07911C5.86663 5.65244 5.89329 5.11022 5.89329 4.44355C5.89329 3.91022 6.14218 3.26133 6.56885 2.65688C6.72885 2.5591 6.86218 2.52355 6.86218 2.43466C6.86218 2.37244 6.87996 2.30133 6.90663 2.22133C7.65329 1.3591 8.75552 0.665771 9.99996 0.665771C11.2444 0.665771 12.3466 1.3591 13.0933 2.22133C13.12 2.30133 13.1377 2.37244 13.1377 2.43466C13.1377 2.52355 13.2711 2.5591 13.4311 2.65688C13.8577 3.26133 14.1066 3.91022 14.1066 4.44355C14.1066 5.11022 14.1333 5.65244 14.1511 6.07911V6.09688V6.86133C14.4177 6.86133 14.5511 7.16355 14.5777 7.24355C14.5866 7.25244 14.5866 7.26133 14.5866 7.26133C14.5866 7.86577 14.1866 8.87022 14.1866 8.87022C14.1866 8.87022 13.7866 8.97688 13.7866 9.67911C13.7866 10.3813 13.0755 11.208 12.4977 11.688C12.4977 11.8302 12.4977 12.1947 12.56 12.6213C12.5688 12.6924 12.5866 12.7724 12.6044 12.8524C12.64 13.0302 12.6844 13.1991 12.7466 13.3769C12.9155 13.8569 13.2 14.3013 13.6977 14.5058L17.2711 15.6969C18.0533 15.9547 18.6488 16.5947 18.8533 17.4036L19.3333 19.3324Z" fill="#F3F3F1"/>
<path d="M16.2223 21.1102C16.2223 21.1102 21.1112 19.0471 21.1112 14.92C21.1112 13.2694 21.1112 11.2054 21.1112 11.2054L16.2223 9.55469L11.3334 11.2054V14.92C11.3334 19.0471 16.2223 21.1102 16.2223 21.1102Z" fill="#2FDF84"/>
<path d="M9.27996 11.688C9.27996 11.8391 9.27996 12.2036 9.21774 12.6213C9.20885 12.6924 9.19107 12.7724 9.17329 12.8524C9.13774 13.0213 9.09329 13.1991 9.03107 13.3769C8.86218 13.8569 8.57774 14.3013 8.07996 14.5058L4.50663 15.6969C3.7244 15.9547 3.12885 16.5947 2.9244 17.4036L2.4444 19.3324H0.666626L1.14663 17.4036C1.35107 16.5947 1.94663 15.9547 2.72885 15.6969L6.30218 14.5058C6.79996 14.3013 7.08441 13.8569 7.25329 13.3769C7.31552 13.1991 7.35996 13.0213 7.39552 12.8524C7.41329 12.7724 7.43107 12.6924 7.43996 12.6213C7.50218 12.2036 7.50218 11.8391 7.50218 11.688C6.92441 11.208 6.21329 10.3813 6.21329 9.67911C6.21329 8.97688 5.81329 8.87022 5.81329 8.87022C5.81329 8.87022 5.41329 7.86577 5.41329 7.26133C5.41329 7.26133 5.41329 7.25244 5.42218 7.24355C5.44885 7.16355 5.58218 6.86133 5.84885 6.86133C5.84885 6.86133 5.84885 6.55022 5.84885 6.09688C5.84885 6.08799 5.84885 6.08799 5.84885 6.07911C5.86663 5.65244 5.89329 5.11022 5.89329 4.44355C5.89329 3.91022 6.14218 3.26133 6.56885 2.65688C6.72885 2.5591 6.86218 2.52355 6.86218 2.43466C6.86218 2.37244 6.87996 2.30133 6.90663 2.22133C7.65329 1.3591 8.75552 0.665771 9.99996 0.665771C10.3022 0.665771 10.6044 0.710216 10.8889 0.790216C10.0177 1.01244 9.24441 1.57244 8.68441 2.22133C8.65774 2.30133 8.63996 2.37244 8.63996 2.43466C8.63996 2.52355 8.50663 2.5591 8.34663 2.65688C7.91996 3.26133 7.67107 3.91022 7.67107 4.44355C7.67107 5.11022 7.64441 5.65244 7.62663 6.07911V6.09688V6.86133C7.35996 6.86133 7.22663 7.16355 7.19996 7.24355C7.19107 7.25244 7.19107 7.26133 7.19107 7.26133C7.19107 7.86577 7.59107 8.87022 7.59107 8.87022C7.59107 8.87022 7.99107 8.97688 7.99107 9.67911C7.99107 10.3813 8.70218 11.208 9.27996 11.688V11.688Z" fill="#D5DBE1"/>
<path d="M17.1112 20.648C16.5867 20.9591 16.2223 21.1102 16.2223 21.1102C16.2223 21.1102 11.3334 19.048 11.3334 14.9236C11.3334 12.4436 11.3334 11.208 11.3334 11.208L16.2223 9.55469L17.1112 9.85691L13.1112 11.208V14.9236C13.1112 17.928 15.7067 19.8391 17.1112 20.648Z" fill="#00B871"/>
<path d="M10.0178 19.9991H0.66667C0.462225 19.9991 0.267559 19.9049 0.141336 19.7431C0.0142253 19.5813 -0.0293303 19.3707 0.0195586 19.1716L0.499558 17.2427C0.760003 16.2089 1.51556 15.3947 2.52 15.064L6.09067 13.8738C6.50222 13.7013 6.78311 12.9991 6.82933 11.9831C6.34933 11.5351 5.54667 10.6409 5.54667 9.68C5.54667 9.56978 5.53067 9.50222 5.51911 9.46933C5.37245 9.39733 5.256 9.27289 5.19467 9.11822C5.14845 9.00356 4.74667 7.97422 4.74667 7.26222C4.74667 7.20889 4.75289 7.15556 4.76534 7.10311C4.82489 6.85956 4.96 6.61511 5.15911 6.44089C5.16356 6.36178 5.168 6.27645 5.17245 6.18578C5.19556 5.74933 5.22667 5.168 5.22667 4.44445C5.22667 2.696 7.27645 0 10 0C12.2969 0 13.4667 1.20622 13.7404 2.06489C14.2924 2.39022 14.8178 2.96889 14.8178 4.44445V6.44889C15.008 6.61067 15.1458 6.83111 15.2187 7.05067C15.2418 7.11911 15.2533 7.19022 15.2533 7.26222L14.5289 7.28178L13.9547 7.47378C13.9591 7.47378 14.0409 7.52978 14.1511 7.52978C13.7831 7.52978 13.4844 7.23111 13.4844 6.86311V4.44533C13.4844 3.42222 13.2009 3.27911 13.0124 3.18489C12.8649 3.10933 12.4711 2.91111 12.4711 2.43467C12.4373 2.29156 11.8267 1.33244 10 1.33244C8.04711 1.33244 6.56 3.40622 6.56 4.44356C6.56 5.19644 6.52889 5.80089 6.504 6.25511C6.49067 6.50756 6.48 6.71022 6.48 6.86133C6.48 7.128 6.32356 7.35822 6.09689 7.46489C6.14045 7.75378 6.256 8.136 6.35734 8.42311C6.62578 8.64 6.88 9.03467 6.88 9.67911C6.88 10.0356 7.33067 10.6791 7.92889 11.1751C8.08089 11.3022 8.16978 11.4898 8.16978 11.688C8.16978 13.4711 7.59733 14.6907 6.55822 15.1218L2.94134 16.3298C2.36978 16.5182 1.94222 16.9804 1.79467 17.5671L1.52 18.6658H10.0178V19.9991ZM5.64 9.51378H5.64178C5.64089 9.51467 5.64 9.51378 5.64 9.51378Z" fill="#333333"/>
<path d="M16.2222 21.777C16.1333 21.777 16.0462 21.7592 15.9626 21.7245C15.7466 21.633 10.6666 19.4374 10.6666 14.9201V11.2054C10.6666 10.9192 10.8488 10.6659 11.12 10.5743L16.0088 8.92364C16.1475 8.87653 16.2968 8.87653 16.4355 8.92364L21.3244 10.5743C21.5955 10.6659 21.7777 10.9201 21.7777 11.2054V14.9201C21.7777 19.4374 16.6977 21.6339 16.4817 21.7245C16.3982 21.7592 16.3111 21.777 16.2222 21.777V21.777ZM12 11.6845V14.9201C12 18.0454 15.2648 19.8987 16.2213 20.3743C17.1768 19.8961 20.4444 18.0339 20.4444 14.9201V11.6845L16.2222 10.2587L12 11.6845Z" fill="#333333"/>
<path d="M15.7778 17.3325C15.7653 17.3325 15.7538 17.3325 15.7413 17.3316C15.5511 17.3209 15.376 17.2303 15.2569 17.0827L13.4791 14.8605L14.5209 14.0267L15.8338 15.6676L18.4178 13.0836L19.3609 14.0267L16.2498 17.1378C16.1245 17.2623 15.9538 17.3325 15.7778 17.3325Z" fill="#333333"/>
</svg>
